HIERARCHY
ROOT Hips
{
	OFFSET 0.00000 0.00000 0.00000
	CHANNELS 6 Xposition Yposition Zposition Zrotation Yrotation Xrotation 
	JOINT LHipJoint
	{
		OFFSET 0 0 0
		CHANNELS 3 Zrotation Yrotation Xrotation
		JOINT LeftHip
		{
			OFFSET 1.64549 -1.70879 0.84566
			CHANNELS 3 Zrotation Yrotation Xrotation
			JOINT LeftKnee
			{
				OFFSET 2.24963 -6.18082 0.00000
				CHANNELS 3 Zrotation Yrotation Xrotation
				JOINT LeftAnkle
				{
					OFFSET 2.71775 -7.46697 0.00000
					CHANNELS 3 Zrotation Yrotation Xrotation
					JOINT LeftToe
					{
						OFFSET 0.18768 -0.51564 2.24737
						CHANNELS 3 Zrotation Yrotation Xrotation
						End Site
						{
							OFFSET 0.00000 -0.00000 1.15935
						}
					}
				}
			}
		}
	}
	JOINT RHipJoint
	{
		OFFSET 0 0 0
		CHANNELS 3 Zrotation Yrotation Xrotation
		JOINT RightHip
		{
			OFFSET -1.58830 -1.70879 0.84566
			CHANNELS 3 Zrotation Yrotation Xrotation
			JOINT RightKnee
			{
				OFFSET -2.25006 -6.18201 0.00000
				CHANNELS 3 Zrotation Yrotation Xrotation
				JOINT RightAnkle
				{
					OFFSET -2.72829 -7.49593 0.00000
					CHANNELS 3 Zrotation Yrotation Xrotation
					JOINT RightToe
					{
						OFFSET -0.21541 -0.59185 2.10643
						CHANNELS 3 Zrotation Yrotation Xrotation
						End Site
						{
							OFFSET -0.00000 -0.00000 1.09838
						}
					}
				}
			}
		}
	}
	JOINT lowerback
	{
		OFFSET 0 0 0
		CHANNELS 3 Zrotation Yrotation Xrotation
		JOINT Chest
		{
			OFFSET 0.03142 2.10496 -0.11038
			CHANNELS 3 Zrotation Yrotation Xrotation
			JOINT Chest2
			{
				OFFSET -0.01863 2.10897 -0.06956
				CHANNELS 3 Zrotation Yrotation Xrotation
				JOINT lowerneck
				{
					OFFSET 0 0 0
					CHANNELS 3 Zrotation Yrotation Xrotation
					JOINT Neck
					{
						OFFSET -0.02267 1.73238 0.00451
						CHANNELS 3 Zrotation Yrotation Xrotation
						JOINT Head
						{
							OFFSET -0.05808 1.54724 -0.61749
							CHANNELS 3 Zrotation Yrotation Xrotation
							End Site
							{
								OFFSET -0.01396 1.71468 -0.21082
							}
						}
					}
				}
				JOINT LeftCollar
				{
					OFFSET 0 0 0
					CHANNELS 3 Zrotation Yrotation Xrotation
					JOINT LeftShoulder
					{
						OFFSET 3.44898 0.50298 0.21920
CHANNELS 3 Zrotation Xrotation Yrotation
						JOINT LeftElbow
						{
OFFSET 0 -5.419170 -0.000000
CHANNELS 3 Zrotation Xrotation Yrotation
							JOINT LeftWrist
							{
OFFSET 0 -2.443730 0.000000
CHANNELS 3 Zrotation Xrotation Yrotation
								JOINT lhand
								{
									OFFSET 0 0 0
CHANNELS 3 Zrotation Xrotation Yrotation
									JOINT LFingers
									{
OFFSET 0 -0.727500 0.000000
CHANNELS 3 Zrotation Xrotation Yrotation
										End Site
										{
OFFSET 0 -0.586530 0.000000
										}
									}
								}
								JOINT LThumb
								{
OFFSET 0 0.000000 0.000000
CHANNELS 3 Zrotation Xrotation Yrotation
									End Site
									{
OFFSET 0 -0.595490 0.595490
									}
								}
							}
						}
					}
				}
				JOINT RightCollar
				{
					OFFSET 0 0 0
					CHANNELS 3 Zrotation Yrotation Xrotation
					JOINT RightShoulder
					{
						OFFSET -3.23015 0.55830 0.31051
CHANNELS 3 Zrotation Xrotation Yrotation
						JOINT RightElbow
						{
OFFSET 0 -5.589760 0.000140
CHANNELS 3 Zrotation Xrotation Yrotation
							JOINT RightWrist
							{
OFFSET 0 -2.480600 0.000000
CHANNELS 3 Zrotation Xrotation Yrotation
								JOINT rhand
								{
									OFFSET 0 0 0
CHANNELS 3 Zrotation Xrotation Yrotation
									JOINT RFingers
									{
OFFSET 0 -0.816010 0.000000
CHANNELS 3 Zrotation Xrotation Yrotation
										End Site
										{
OFFSET 0 -0.657890 0.000000
										}
									}
								}
								JOINT RThumb
								{
OFFSET 0 0.000000 0.000000
CHANNELS 3 Zrotation Xrotation Yrotation
									End Site
									{
OFFSET 0 -0.667930 0.667930
									}
								}
							}
						}
					}
				}
			}
		}
	}
}
MOTION
Frames: 7
Frame Time: 0.008333333333333333
0.813705 14.806386 10.857817 -170.766775 -5.666961 -159.015768 0.000000 0.000000 0.000000 5.185840 -14.521922 -62.571304 20.787931 19.985042 92.304181 1.398983 15.602188 -32.675272 0.654736 5.174826 14.407942 0.000000 0.000000 0.000000 32.178799 23.741566 -43.553456 -11.723459 -18.271257 65.109463 -4.811865 -10.722150 -45.846432 -0.437929 -4.238475 11.749826 17.897883 2.410232 0.912391 4.163998 3.183513 -4.470752 -5.591337 0.603184 -4.575249 -3.739064 -0.417032 -23.598206 -1.717777 0.955307 22.316440 0.119461 -0.242351 11.145844 0.000000 0.000000 0.000000 38.957036 13.821985 -7.009864 16.380723 -26.034078 3.811608 -11.653001 -20.391717 -19.793582 0.000000 0.000000 0.000000 -7.125000 0.000000 0.000000 -36.933433 46.194455 1.261394 0.000000 0.000000 0.000000 -37.027435 0.518578 4.161546 -11.936292 -19.705453 -2.083424 1.098654 5.622121 -10.623309 0.000000 0.000000 0.000000 7.125000 0.000000 0.000000 19.659274 19.613562 12.678826
0.812702 14.837204 10.601641 -170.627210 -2.794810 -159.593793 0.000000 0.000000 0.000000 4.114087 -14.862332 -65.188565 20.718657 19.987533 92.101781 1.944384 14.524497 -34.878360 0.665685 5.216973 14.528672 0.000000 0.000000 0.000000 32.787868 23.309043 -40.506639 -11.363999 -18.108186 63.957557 -4.879128 -9.890387 -45.722204 -0.256689 -3.252708 8.983727 16.563988 2.992486 3.011194 4.401280 4.367267 -4.057615 -4.757878 1.230746 -5.149657 -4.266674 -0.354553 -24.389189 -1.916118 1.340883 22.670813 0.192840 -0.161575 11.426359 0.000000 0.000000 0.000000 33.285242 16.186398 -2.953652 15.563494 -24.923917 3.460769 -14.651270 -20.165736 -17.748549 0.000000 0.000000 0.000000 -7.125000 0.000000 0.000000 -38.157176 44.115368 -1.002935 0.000000 0.000000 0.000000 -35.765943 -2.294576 14.258037 -15.086449 -24.248904 -3.271948 1.233613 -0.641111 -11.157596 0.000000 0.000000 0.000000 7.125000 0.000000 0.000000 19.683568 19.111743 12.935462
0.784943 14.857559 10.342176 -169.728958 -1.212185 -159.370387 0.000000 0.000000 0.000000 4.642354 -15.939214 -69.209442 20.469147 19.994500 91.371718 2.450231 14.675819 -37.654734 0.800822 5.708660 15.942225 0.000000 0.000000 0.000000 33.879713 24.705659 -37.757975 -10.858678 -17.864273 62.320583 -4.943255 -10.402939 -46.221366 -0.209934 -2.949491 8.138114 16.696332 2.221278 3.878661 4.593371 5.194004 -3.850133 -4.805338 2.334474 -5.472598 -3.992611 -0.091406 -25.054339 -2.277361 1.760919 22.780757 0.083678 -0.003696 11.595987 0.000000 0.000000 0.000000 28.365517 18.541326 2.046734 14.594108 -23.576899 3.062166 -18.284093 -17.393048 -14.417809 0.000000 0.000000 0.000000 -7.125000 0.000000 0.000000 -39.094993 40.914699 -4.816717 0.000000 0.000000 0.000000 -34.035442 -5.458450 23.352730 -18.760008 -29.096207 -4.925122 1.377369 -6.905657 -10.641958 0.000000 0.000000 0.000000 7.125000 0.000000 0.000000 19.842378 19.598523 12.822707
0.739523 14.902171 10.048649 -168.310743 -0.455578 -158.277609 0.000000 0.000000 0.000000 6.383707 -17.209192 -73.765398 19.954428 19.999469 89.866728 3.160071 14.030585 -40.620685 1.047123 6.506455 18.261491 0.000000 0.000000 0.000000 35.311297 25.844361 -35.682547 -10.191778 -17.515595 60.126444 -4.936713 -10.802172 -46.384260 -0.175352 -2.697211 7.436811 18.007734 2.340293 4.469225 4.536900 5.814356 -4.756175 -5.669910 2.480294 -6.633284 -3.327444 0.413511 -25.330345 -2.525404 2.298120 23.586057 -0.031305 0.224852 11.963261 0.000000 0.000000 0.000000 24.592518 22.406997 3.806735 14.284990 -23.140607 2.939237 -21.544381 -19.227720 -12.948080 0.000000 0.000000 0.000000 -7.125000 0.000000 0.000000 -40.616638 39.295390 -7.170716 0.000000 0.000000 0.000000 -31.803959 -7.418198 32.380539 -22.967665 -34.041208 -7.125373 0.236656 -13.692546 -9.834983 0.000000 0.000000 0.000000 7.125000 0.000000 0.000000 19.171794 20.350291 11.988652
0.699592 15.004137 9.716578 -167.691978 1.463377 -156.143653 0.000000 0.000000 0.000000 7.349311 -17.620847 -78.209621 18.867275 19.967171 86.686180 3.502431 14.632248 -42.545388 1.246694 7.078399 19.948302 0.000000 0.000000 0.000000 35.215610 27.769801 -33.906758 -9.303596 -16.997313 57.131476 -4.816469 -10.828656 -45.914765 -0.158691 -2.566845 7.074925 18.293726 3.194662 3.751371 4.030951 6.984248 -5.832847 -6.404620 2.952758 -7.088356 -3.390500 0.455322 -25.452306 -2.531874 2.375480 24.240072 -0.015205 0.217115 12.242318 0.000000 0.000000 0.000000 21.358614 25.994871 4.177282 14.525323 -23.480667 3.034299 -23.512480 -24.698307 -13.221880 0.000000 0.000000 0.000000 -7.125000 0.000000 0.000000 -42.062131 39.264316 -7.617545 0.000000 0.000000 0.000000 -29.633345 -8.160243 39.703699 -28.264862 -39.334845 -10.300554 -1.133299 -20.087241 -9.583861 0.000000 0.000000 0.000000 7.125000 0.000000 0.000000 18.266869 20.574199 11.260211
0.676013 15.256734 9.351193 -168.788639 3.482105 -154.550351 0.000000 0.000000 0.000000 6.397453 -18.524175 -80.168332 17.009069 19.775803 81.221255 3.324412 14.822805 -41.882907 1.416487 7.526974 21.286335 0.000000 0.000000 0.000000 33.405582 28.266627 -31.415744 -8.096580 -16.183441 52.899597 -4.713555 -10.099750 -45.145888 -0.147538 -2.475522 6.821650 16.974856 4.106036 3.085905 2.961902 7.864278 -6.514507 -6.847387 3.342796 -7.196240 -4.077224 0.235600 -26.200459 -1.949676 2.237496 24.627057 0.296980 0.159023 12.522971 0.000000 0.000000 0.000000 18.727979 28.385668 4.420335 14.915510 -24.027407 3.192038 -25.474223 -29.864688 -15.043789 0.000000 0.000000 0.000000 -7.125000 0.000000 0.000000 -44.335386 40.478630 -6.478008 0.000000 0.000000 0.000000 -27.436983 -8.703152 44.725323 -34.343107 -44.289192 -14.368671 -1.565964 -24.842306 -9.763558 0.000000 0.000000 0.000000 7.125000 0.000000 0.000000 17.949944 20.397764 11.119313
0.662816 15.534589 8.967104 -170.682763 6.365381 -153.857342 0.000000 0.000000 0.000000 4.252476 -18.967006 -80.253629 14.934658 19.366267 75.034587 2.594352 15.629652 -39.065666 0.777375 5.451503 15.242106 0.000000 0.000000 0.000000 30.847727 28.202757 -27.830492 -6.778708 -15.135919 48.020156 -4.485634 -9.528471 -43.920157 -0.096875 -1.985584 5.466537 14.536911 5.139807 2.965811 1.485452 8.810909 -6.964980 -7.155555 3.796161 -7.391316 -4.883072 -0.077206 -25.303934 -0.983126 1.783248 23.810758 0.717505 0.063678 12.012474 0.000000 0.000000 0.000000 16.915124 31.063617 3.421465 15.879684 -25.356127 3.594930 -28.838060 -35.248679 -15.674807 0.000000 0.000000 0.000000 -7.125000 0.000000 0.000000 -46.757379 40.480783 -7.124802 0.000000 0.000000 0.000000 -25.202563 -8.693150 48.378987 -41.997460 -49.154075 -19.955185 0.672673 -28.588820 -9.551154 0.000000 0.000000 0.000000 7.125000 0.000000 0.000000 19.503429 20.618503 12.094607
